<svg id="Capa_1" enable-background="new 0 0 504.5 504.5" height="512" viewBox="0 0 504.5 504.5" width="512" xmlns="http://www.w3.org/2000/svg"><g><g><path d="m252.25 504.5c-4.142 0-7.5-3.358-7.5-7.5 0-16.603-4.216-24.402-9.098-33.434-5.11-9.454-10.902-20.169-10.902-40.566s5.792-31.112 10.902-40.566c4.882-9.031 9.098-16.831 9.098-33.434 0-4.142 3.358-7.5 7.5-7.5s7.5 3.358 7.5 7.5c0 20.397-5.792 31.112-10.902 40.566-4.882 9.031-9.098 16.831-9.098 33.434s4.216 24.402 9.098 33.434c5.11 9.454 10.902 20.169 10.902 40.566 0 4.142-3.358 7.5-7.5 7.5z" fill="#407194"/></g><g><path d="m383.196 504.5c-4.142 0-7.5-3.358-7.5-7.5 0-14.276-3.633-20.998-7.84-28.781-4.521-8.363-9.645-17.843-9.645-35.914s5.124-27.55 9.645-35.913c4.207-7.783 7.84-14.504 7.84-28.781 0-4.142 3.358-7.5 7.5-7.5s7.5 3.358 7.5 7.5c0 18.071-5.124 27.55-9.645 35.914-4.207 7.783-7.84 14.504-7.84 28.78s3.633 20.998 7.84 28.781c4.521 8.363 9.645 17.843 9.645 35.914 0 4.142-3.358 7.5-7.5 7.5z" fill="#407194"/></g><g><path d="m121.305 504.5c-4.142 0-7.5-3.358-7.5-7.5 0-18.071 5.124-27.55 9.645-35.914 4.207-7.783 7.84-14.504 7.84-28.781 0-14.276-3.633-20.998-7.84-28.78-4.521-8.363-9.645-17.843-9.645-35.914 0-4.142 3.358-7.5 7.5-7.5s7.5 3.358 7.5 7.5c0 14.276 3.633 20.998 7.84 28.781 4.521 8.363 9.645 17.842 9.645 35.913s-5.124 27.55-9.645 35.914c-4.207 7.783-7.84 14.504-7.84 28.781 0 4.142-3.358 7.5-7.5 7.5z" fill="#407194"/></g><path d="m108.25 315-12.9 39.508c-2.111 6.464 2.706 13.104 9.506 13.104h32.871c6.808 0 11.626-6.654 9.5-13.122l-12.977-39.49z" fill="#b2e5fb"/><path d="m119.86 367.61h-15c-6.8 0-11.62-6.64-9.51-13.1l12.9-39.51h15l-12.9 39.51c-2.11 6.46 2.71 13.1 9.51 13.1z" fill="#91dafa"/><path d="m396.25 317 12.694 37.397c2.201 6.485-2.621 13.214-9.469 13.214h-32.53c-6.857 0-11.68-6.744-9.463-13.233l12.768-37.378z" fill="#dc4955"/><path d="m381.94 367.61h-15c-6.85 0-11.68-6.74-9.46-13.23l12.77-37.38h15l-12.77 37.38c-2.22 6.49 2.61 13.23 9.46 13.23z" fill="#d82f3c"/><path d="m269.25 296 13.221 39.851c2.148 6.473-2.671 13.149-9.491 13.149h-41.46c-6.82 0-11.639-6.676-9.491-13.149l13.221-39.851z" fill="#f8e837"/><path d="m246.52 349h-15c-6.82 0-11.64-6.68-9.49-13.15l13.22-39.85h15l-13.22 39.85c-2.15 6.47 2.67 13.15 9.49 13.15z" fill="#f3d332"/><path d="m365.712 63.802c-56.717 8.498-100.212 57.832-100.212 125.141 0 74.119 52.743 142.388 117.804 142.388 30.03 0 57.435-14.544 78.242-37.494l-.06-.054c24.244-26.771 39.514-64.959 39.514-104.841 0-74.119-52.743-126.442-117.804-126.442-5.942 0-11.78.436-17.486 1.286z" fill="#dc4955"/><path d="m461.49 293.78.06.06c-20.81 22.95-48.22 37.49-78.25 37.49-65.06 0-117.8-68.27-117.8-142.39 0-46.7 20.94-84.75 52.71-106.5-14.28 20.71-22.71 46.86-22.71 76.5 0 74.12 52.74 142.39 117.8 142.39 20.9 0 40.53-7.04 57.55-19.06-2.94 4.03-6.07 7.88-9.36 11.51z" fill="#d82f3c"/><path d="m407 144.63c0 45.48-16.01 91.33-43.92 125.81-12.69 15.69-27.13 28.36-42.75 37.75-32.95-26.2-54.83-71.51-54.83-119.25 0-67.31 43.5-116.64 100.21-125.14v-.01c5.71-.85 11.54-1.29 17.49-1.29 1.47 0 2.93.03 4.38.09 12.68 24.36 19.42 52.41 19.42 82.04z" fill="#dc4955"/><path d="m103.712 63.802c-56.717 8.498-100.211 57.832-100.211 125.14 0 74.119 52.743 142.388 117.804 142.388 30.03 0 57.435-14.544 78.242-37.494l-.06-.054c24.243-26.77 39.513-64.958 39.513-104.84 0-74.119-52.743-126.442-117.804-126.442-5.942 0-11.78.436-17.486 1.286z" fill="#b2e5fb"/><path d="m199.49 293.78.06.06c-20.81 22.95-48.22 37.49-78.25 37.49-65.06 0-117.8-68.27-117.8-142.39 0-46.7 20.94-84.75 52.71-106.5-14.28 20.71-22.71 46.86-22.71 76.5 0 74.12 52.74 142.39 117.8 142.39 20.9 0 40.53-7.04 57.55-19.06-2.94 4.03-6.07 7.88-9.36 11.51z" fill="#91dafa"/><path d="m199.49 293.78.06.06c-4.77 5.27-9.89 10.09-15.32 14.39-15.64-9.4-30.1-22.08-42.81-37.79-27.91-34.48-43.92-80.33-43.92-125.81 0-29.63 6.74-57.69 19.43-82.05 1.42-.05 2.84-.08 4.27-.08 65.06 0 117.8 52.32 117.8 126.44 0 39.88-15.27 78.07-39.51 104.84z" fill="#b2e5fb"/><path d="m239 188.94c0 39.88-15.27 78.07-39.51 104.84l.06.06c-4.77 5.27-9.89 10.09-15.32 14.39-15.64-9.4-30.1-22.08-42.81-37.79-27.91-34.48-43.92-80.33-43.92-125.81 0-29.63 6.74-57.69 19.43-82.05 1.42-.05 2.84-.08 4.27-.08 65.06 0 117.8 52.32 117.8 126.44z" fill="#91dafa"/><path d="m407 144.63c0 45.48-16.01 91.33-43.92 125.81-12.69 15.69-27.13 28.36-42.75 37.75-32.95-26.2-54.83-71.51-54.83-119.25 0-67.31 43.5-116.64 100.21-125.14v-.01c5.71-.85 11.54-1.29 17.49-1.29 1.47 0 2.93.03 4.38.09 12.68 24.36 19.42 52.41 19.42 82.04z" fill="#d82f3c"/><path d="m117.501 144.63c0-84.781 60.329-144.63 134.749-144.63s134.75 59.849 134.75 144.63-60.33 162.87-134.75 162.87-134.749-78.089-134.749-162.87z" fill="#f8e837"/><path d="m351.63 252.57c-24.63 33.1-60.03 54.93-99.38 54.93-74.42 0-134.75-78.09-134.75-162.87 0-52.77 23.37-95.87 58.96-120.9-16.93 23.91-26.96 54.33-26.96 88.9 0 84.78 60.33 162.87 134.75 162.87 24.55 0 47.56-8.49 67.38-22.93z" fill="#f3d332"/></g></svg>